<?xml version="1.0" encoding="UTF-8" standalone="no"?>
<svg width="20px" height="20px" viewBox="0 0 20 20" version="1.1" xmlns="http://www.w3.org/2000/svg" xmlns:xlink="http://www.w3.org/1999/xlink">
    <!-- Generator: Sketch 41.2 (35397) - http://www.bohemiancoding.com/sketch -->
    <title>checkocircle</title>
    <desc>Created with Sketch.</desc>
    <defs></defs>
    <g id="Page-1" stroke="none" stroke-width="1" fill="none" fill-rule="evenodd">
        <g id="680x680" transform="translate(-530.000000, -130.000000)" fill="#85B650">
            <g id="Row-2" transform="translate(50.000000, 130.000000)">
                <path d="M490,0 C484.476828,0 480,4.47762731 480,9.99948509 C480,15.5223727 484.476828,20 490,20 C495.523172,20 500,15.5223727 500,9.99948509 C500,4.47762731 495.523172,0 490,0 L490,0 Z M490.048478,18 C485.630544,18 482.049,14.4184559 482.049,9.99947791 C482.049,5.58154408 485.630544,2 490.048478,2 C494.467456,2 498.049,5.58154408 498.049,9.99947791 C498.049,14.4184559 494.467456,18 490.048478,18 Z M486.294186,10.7498182 C485.901938,10.3693419 485.901938,9.75162734 486.294186,9.37025576 C486.700246,8.97635085 487.334657,8.97635085 487.726905,9.35682719 L488.934956,10.5322753 L492.274591,7.28524545 C492.665918,6.90476911 493.30125,6.90476911 493.692578,7.28614068 C494.097717,7.68094083 494.097717,8.29776012 493.706389,8.67823645 L489.492022,12.7757428 C489.184485,13.0747524 488.685427,13.0747524 488.37789,12.7757428 L486.294186,10.7498182 Z" id="checkocircle"></path>
            </g>
        </g>
    </g>
</svg>