<?xml version="1.0" encoding="UTF-8" standalone="no"?>
<svg width="20px" height="20px" viewBox="0 0 20 20" version="1.1" xmlns="http://www.w3.org/2000/svg" xmlns:xlink="http://www.w3.org/1999/xlink">
    <!-- Generator: Sketch 41.2 (35397) - http://www.bohemiancoding.com/sketch -->
    <title>deleteocircle</title>
    <desc>Created with Sketch.</desc>
    <defs></defs>
    <g id="Page-1" stroke="none" stroke-width="1" fill="none" fill-rule="evenodd">
        <g id="680x680" transform="translate(-610.000000, -130.000000)" fill="#CC5F5F">
            <g id="Row-2" transform="translate(50.000000, 130.000000)">
                <path d="M570,0 C564.476828,0 560,4.47762731 560,9.99948509 C560,15.5223727 564.476828,20 570,20 C575.523172,20 580,15.5223727 580,9.99948509 C580,4.47762731 575.523172,0 570,0 L570,0 Z M570,18 C565.582354,18 562,14.4184559 562,9.99947791 C562,5.58154408 565.582354,2 570,2 C574.41869,2 578,5.58154408 578,9.99947791 C578,14.4184559 574.41869,18 570,18 Z M571.537978,10.0814079 C571.492237,10.0368086 571.492237,9.96362004 571.537978,9.91787717 L573.701538,7.75423922 C574.099487,7.35627622 574.099487,6.71130169 573.701538,6.31333869 L573.687816,6.29847225 C573.289867,5.90050925 572.643772,5.90050925 572.245823,6.29847225 L570.082263,8.4621102 C570.036522,8.50785307 569.963336,8.50785307 569.918738,8.4621102 L567.754034,6.29847225 C567.357228,5.90050925 566.711133,5.90050925 566.313185,6.29847225 L566.299462,6.31219512 C565.90037,6.71015812 565.90037,7.35627622 566.298319,7.75423922 L568.463023,9.91787717 C568.507621,9.96362004 568.507621,10.0368086 568.463023,10.0814079 L566.298319,12.2461895 C565.901514,12.6430089 565.90037,13.2879834 566.298319,13.68709 L566.313185,13.7008129 C566.711133,14.0987759 567.356085,14.0999194 567.754034,13.7019564 L569.918738,11.5371749 C569.963336,11.4925756 570.036522,11.4925756 570.082263,11.5371749 L572.245823,13.7019564 C572.643772,14.0987759 573.288724,14.0999194 573.686673,13.7019564 L573.701538,13.68709 C574.099487,13.289127 574.099487,12.6441525 573.701538,12.2461895 L571.537978,10.0814079 Z" id="deleteocircle"></path>
            </g>
        </g>
    </g>
</svg>