<?xml version="1.0" encoding="UTF-8" standalone="no"?>
<svg width="20px" height="20px" viewBox="0 0 20 20" version="1.1" xmlns="http://www.w3.org/2000/svg" xmlns:xlink="http://www.w3.org/1999/xlink">
    <!-- Generator: Sketch 41.2 (35397) - http://www.bohemiancoding.com/sketch -->
    <title>deletecircle</title>
    <desc>Created with Sketch.</desc>
    <defs></defs>
    <g id="Page-1" stroke="none" stroke-width="1" fill="none" fill-rule="evenodd">
        <g id="680x680" transform="translate(-130.000000, -210.000000)" fill="#CC5F5F">
            <g id="Row-3" transform="translate(50.000000, 210.000000)">
                <path d="M90,0 C84.4778579,0 80,4.47785788 80,10 C80,15.523172 84.4778579,20 90,20 C95.523172,20 100,15.523172 100,10 C100,4.47785788 95.523172,0 90,0 L90,0 Z M91.5378018,10.0823328 L93.7015171,12.2458548 C94.0994943,12.6437965 94.0994943,13.2898799 93.7015171,13.6878216 L93.6866501,13.7015437 C93.2886729,14.0994854 92.6436753,14.0994854 92.2456981,13.7015437 L90.0819828,11.5380217 C90.0362383,11.4922813 89.9630471,11.4922813 89.9184462,11.5380217 L87.7535873,13.7015437 C87.3556101,14.0994854 86.7106125,14.0994854 86.3126353,13.7015437 L86.2977683,13.6866781 C85.9009347,13.2887364 85.9009347,12.6437965 86.2989119,12.2458548 L88.4626272,10.0823328 C88.5072281,10.0365923 88.5072281,9.96340766 88.4626272,9.91881075 L86.2989119,7.75414523 C85.8997911,7.35620354 85.9009347,6.71126358 86.2989119,6.3133219 L86.3137789,6.29845626 C86.7117561,5.90051458 87.3567537,5.90051458 87.7535873,6.29845626 L89.9184462,8.46312178 C89.9630471,8.5077187 90.0362383,8.5077187 90.0819828,8.46312178 L92.2456981,6.29845626 C92.6436753,5.90051458 93.2898165,5.90051458 93.6877937,6.29959977 L93.7015171,6.3133219 C94.0994943,6.71126358 94.0994943,7.35620354 93.7015171,7.75414523 L91.5378018,9.91881075 C91.4932009,9.96340766 91.4932009,10.0365923 91.5378018,10.0823328 L91.5378018,10.0823328 Z" id="deletecircle"></path>
            </g>
        </g>
    </g>
</svg>