<?xml version="1.0" encoding="UTF-8"?>
<svg width="20px" height="20px" viewBox="0 0 20 20" version="1.1" xmlns="http://www.w3.org/2000/svg" xmlns:xlink="http://www.w3.org/1999/xlink">
    <!-- Generator: Sketch 48.2 (47327) - http://www.bohemiancoding.com/sketch -->
    <title>thumbtack</title>
    <desc>Created with Sketch.</desc>
    <defs></defs>
    <g id="Icons" stroke="none" stroke-width="1" fill="none" fill-rule="evenodd">
        <g id="thumbtack" fill="#9B9B9B">
            <path d="M13.905,0.170878367 C13.493,0.430878367 13.171,1.07087837 13.41,1.49687837 C13.639,1.90487837 13.542,2.43487837 13.172,2.72087837 C11.413,4.17287837 10.199,5.12987837 8.492,6.33987837 C8.079,6.65987837 7.53,6.74187837 7.042,6.55687837 C5.994,6.16487837 4.473,6.41587837 3.648,7.24087837 C3.044,7.84487837 3.113,8.50487837 3.628,9.02087837 C4.144,9.53587837 5.549,10.9408784 5.92,11.3128784 C6.292,11.6848784 6.41,12.0908784 6.04,12.5178784 C5.671,12.9458784 0,19.1608784 0,19.1608784 L0.659,19.8188784 C0.659,19.8188784 6.873,14.1478784 7.301,13.7788784 C7.729,13.4088784 8.134,13.5268784 8.506,13.8988784 C8.878,14.2708784 10.283,15.6748784 10.798,16.1908784 C11.314,16.7058784 11.974,16.7748784 12.578,16.1708784 C13.403,15.3458784 13.654,13.8248784 13.262,12.7768784 C13.077,12.2888784 13.159,11.7398784 13.479,11.3268784 C14.801,9.45187837 15.687,8.38187837 17.098,6.64687837 C17.384,6.27687837 17.914,6.17987837 18.323,6.40887837 C18.748,6.64787837 19.388,6.32687837 19.648,5.91387837 C19.925,5.47187837 19.86,4.89687837 19.491,4.52787837 L15.291,0.327878367 C14.922,-0.041121633 14.347,-0.106121633 13.905,0.170878367"></path>
        </g>
    </g>
</svg>