<?xml version="1.0" encoding="UTF-8"?>
<svg width="12px" height="16px" viewBox="0 0 12 16" version="1.1" xmlns="http://www.w3.org/2000/svg" xmlns:xlink="http://www.w3.org/1999/xlink">
    <!-- Generator: Sketch 48.1 (47250) - http://www.bohemiancoding.com/sketch -->
    <title>trashcan</title>
    <desc>Created with Sketch.</desc>
    <defs></defs>
    <g id="Modal-5" stroke="none" stroke-width="1" fill="none" fill-rule="evenodd" transform="translate(-988.000000, -507.000000)">
        <g id="Modal" transform="translate(395.000000, 146.000000)" fill="#9B9B9B">
            <g id="Current-Q&amp;A-Sessions" transform="translate(25.000000, 170.000000)">
                <g id="Session-5" transform="translate(0.000000, 179.000000)">
                    <path d="M578.573637,17.3930461 L569.421014,17.3930461 C568.9946,17.3930461 568.659887,17.7528345 568.695804,18.1723356 L569.472978,27.3771731 C569.502781,27.7294029 569.800049,28 570.156922,28 L577.836964,28 C578.193838,28 578.491869,27.7294029 578.521672,27.3771731 L579.298847,18.1723356 C579.333999,17.7528345 578.999287,17.3930461 578.573637,17.3930461 L578.573637,17.3930461 Z M568.688926,16.1368103 C568.218953,16.1368103 567.897232,15.7082389 568.0302,15.2615268 L568.355742,14.0461073 C568.430632,13.7996977 568.621678,13.6386999 568.883029,13.5880574 C569.144379,13.5366591 571.158767,13.3582766 571.647844,13.3287982 C571.869457,13.3174603 572.006246,13.1352986 572.040634,13.0279667 C572.075786,12.9206349 572.305041,12.4232804 572.447944,12.2433862 C572.513664,12.1617536 572.803289,12 573.996943,12 C575.191362,12 575.487101,12.1617536 575.552056,12.2433862 C575.694959,12.4232804 575.924214,12.9206349 575.959366,13.0279667 C575.993754,13.1352986 576.131307,13.3174603 576.352156,13.3287982 C576.841233,13.3582766 578.855621,13.5366591 579.116971,13.5880574 C579.379086,13.6386999 579.570132,13.7996977 579.645022,14.0461073 L579.9698,15.2615268 C580.102768,15.7082389 579.781047,16.1368103 579.311074,16.1368103 L568.688926,16.1368103 L568.688926,16.1368103 Z" id="trashcan"></path>
                </g>
            </g>
        </g>
    </g>
</svg>